<svg xmlns="http://www.w3.org/2000/svg"  viewBox="0 0 48 48" width="48px" height="48px"><path fill="#a5d6a7" d="M41.091,44H14.909C13.302,44,12,42.698,12,41.091V14.909C12,13.302,13.302,12,14.909,12h26.182	C42.698,12,44,13.302,44,14.909v26.182C44,42.698,42.698,44,41.091,44z"/><path fill="#18193f" d="M19,14h-6c-0.552,0-1,0.448-1,1v6c0,0.552,0.448,1,1,1h7v-7C20,14.448,19.552,14,19,14z"/><path fill="#18193f" d="M35,14h-6c-0.552,0-1,0.448-1,1v7h7c0.552,0,1-0.448,1-1v-6C36,14.448,35.552,14,35,14z"/><path fill="#18193f" d="M20,26h-3c-0.552,0-1,0.448-1,1v7.5c0,0.828,0.671,1.5,1.5,1.5c0.828,0,1.5-0.672,1.5-1.5V33h10v1.5 c0,0.828,0.671,1.5,1.5,1.5c0.828,0,1.5-0.672,1.5-1.5V27c0-0.552-0.448-1-1-1h-3v-4h-8V26z"/><path fill="none" stroke="#18193f" stroke-linecap="round" stroke-linejoin="round" stroke-miterlimit="10" stroke-width="3" d="M40.5,33.5v4c0,1.657-1.343,3-3,3h-27c-1.657,0-3-1.343-3-3V24.362"/><path fill="none" stroke="#18193f" stroke-linecap="round" stroke-linejoin="round" stroke-miterlimit="10" stroke-width="3" d="M7.5,16.702V10.5c0-1.657,1.343-3,3-3h27c1.657,0,3,1.343,3,3V26"/></svg>