<?xml version="1.0" standalone="no"?><!DOCTYPE svg PUBLIC "-//W3C//DTD SVG 1.1//EN" "http://www.w3.org/Graphics/SVG/1.1/DTD/svg11.dtd"><svg t="1749807004545" class="icon" viewBox="0 0 1920 1024" version="1.1" xmlns="http://www.w3.org/2000/svg" p-id="1278" xmlns:xlink="http://www.w3.org/1999/xlink" width="375" height="200"><path d="M128 0h128v128H128zM256 0h128v128H256zM384 0h128v128H384zM512 0h128v128H512zM640 0h128v128H640zM768 0h128v128H768zM896 0h128v128H896zM1024 0h128v128H1024zM1152 0h128v128H1152zM1280 0h128v128h-128z" fill="#E8A074" p-id="1279"></path><path d="M1408 0h128v128h-128zM1536 0h128v128h-128zM1664 0h128v128h-128z" fill="#7A4A3D" p-id="1280"></path><path d="M128 128h128v128H128zM256 128h128v128H256zM384 128h128v128H384zM512 128h128v128H512zM640 128h128v128H640zM768 128h128v128H768zM896 128h128v128H896zM1024 128h128v128H1024zM1152 128h128v128H1152zM1280 128h128v128h-128z" fill="#E8A074" p-id="1281"></path><path d="M1408 128h128v128h-128zM1536 128h128v128h-128zM1664 128h128v128h-128z" fill="#7A4A3D" p-id="1282"></path><path d="M0 256h128v128H0z" fill="#955B4A" p-id="1283"></path><path d="M128 256h128v128H128zM256 256h128v128H256zM384 256h128v128H384zM512 256h128v128H512zM640 256h128v128H640zM768 256h128v128H768zM896 256h128v128H896zM1024 256h128v128H1024zM1152 256h128v128H1152zM1280 256h128v128h-128z" fill="#E8A074" p-id="1284"></path><path d="M1408 256h128v128h-128z" fill="#7A4A3D" p-id="1285"></path><path d="M1536 256h128v128h-128z" fill="#E8A074" p-id="1286"></path><path d="M1664 256h128v128h-128zM1792 256h128v128h-128zM0 384h128v128H0z" fill="#955B4A" p-id="1287"></path><path d="M128 384h128v128H128zM256 384h128v128H256z" fill="#E8A074" p-id="1288"></path><path d="M384 384h128v128H384z" fill="#FFFFFF" p-id="1289"></path><path d="M512 384h128v128H512zM640 384h128v128H640zM768 384h128v128H768zM896 384h128v128H896z" fill="#E8A074" p-id="1290"></path><path d="M1024 384h128v128H1024z" fill="#FFFFFF" p-id="1291"></path><path d="M1152 384h128v128H1152zM1280 384h128v128h-128z" fill="#E8A074" p-id="1292"></path><path d="M1408 384h128v128h-128z" fill="#7A4A3D" p-id="1293"></path><path d="M1536 384h128v128h-128z" fill="#E8A074" p-id="1294"></path><path d="M1664 384h128v128h-128zM1792 384h128v128h-128zM0 512h128v128H0z" fill="#955B4A" p-id="1295"></path><path d="M128 512h128v128H128zM256 512h128v128H256z" fill="#E8A074" p-id="1296"></path><path d="M384 512h128v128H384zM512 512h128v128H512zM640 512h128v128H640zM768 512h128v128H768z" fill="#F2BA86" p-id="1297"></path><path d="M896 512h128v128H896z" fill="#BA6645" p-id="1298"></path><path d="M1024 512h128v128H1024zM1152 512h128v128H1152zM1280 512h128v128h-128z" fill="#E8A074" p-id="1299"></path><path d="M1408 512h128v128h-128z" fill="#7A4A3D" p-id="1300"></path><path d="M1536 512h128v128h-128z" fill="#E8A074" p-id="1301"></path><path d="M1664 512h128v128h-128zM1792 512h128v128h-128zM0 640h128v128H0z" fill="#955B4A" p-id="1302"></path><path d="M128 640h128v128H128zM256 640h128v128H256z" fill="#E8A074" p-id="1303"></path><path d="M384 640h128v128H384z" fill="#A13E38" p-id="1304"></path><path d="M512 640h128v128H512zM640 640h128v128H640z" fill="#F2BA86" p-id="1305"></path><path d="M768 640h128v128H768z" fill="#A13E38" p-id="1306"></path><path d="M896 640h128v128H896z" fill="#BA6645" p-id="1307"></path><path d="M1024 640h128v128H1024zM1152 640h128v128H1152zM1280 640h128v128h-128z" fill="#E8A074" p-id="1308"></path><path d="M1408 640h128v128h-128z" fill="#7A4A3D" p-id="1309"></path><path d="M1536 640h128v128h-128z" fill="#E8A074" p-id="1310"></path><path d="M1664 640h128v128h-128zM1792 640h128v128h-128z" fill="#955B4A" p-id="1311"></path><path d="M128 768h128v128H128z" fill="#E8A074" p-id="1312"></path><path d="M256 768h128v128H256z" fill="#FFFFAE" p-id="1313"></path><path d="M384 768h128v128H384z" fill="#A13E38" p-id="1314"></path><path d="M512 768h128v128H512zM640 768h128v128H640z" fill="#F2BA86" p-id="1315"></path><path d="M768 768h128v128H768z" fill="#A13E38" p-id="1316"></path><path d="M896 768h128v128H896z" fill="#FFFFAE" p-id="1317"></path><path d="M1024 768h128v128H1024z" fill="#DCC473" p-id="1318"></path><path d="M1152 768h128v128H1152zM1280 768h128v128h-128z" fill="#E8A074" p-id="1319"></path><path d="M1408 768h128v128h-128zM1536 768h128v128h-128zM1664 768h128v128h-128z" fill="#7A4A3D" p-id="1320"></path><path d="M128 896h128v128H128z" fill="#E8A074" p-id="1321"></path><path d="M256 896h128v128H256zM384 896h128v128H384z" fill="#FFFFAE" p-id="1322"></path><path d="M512 896h128v128H512zM640 896h128v128H640z" fill="#F2BA86" p-id="1323"></path><path d="M768 896h128v128H768zM896 896h128v128H896z" fill="#FFFFAE" p-id="1324"></path><path d="M1024 896h128v128H1024z" fill="#DCC473" p-id="1325"></path><path d="M1152 896h128v128H1152zM1280 896h128v128h-128z" fill="#E8A074" p-id="1326"></path><path d="M1408 896h128v128h-128zM1536 896h128v128h-128zM1664 896h128v128h-128z" fill="#7A4A3D" p-id="1327"></path></svg>