<?xml version="1.0" encoding="UTF-8"?>
<svg version="1.1" xmlns="http://www.w3.org/2000/svg" width="96" height="96">
<path d="M0 0 C1.37093536 -0.00337114 2.7418678 -0.00822625 4.11279297 -0.01449585 C6.98108474 -0.02185344 9.84859609 -0.0111996 12.71679688 0.01220703 C16.38583493 0.04069651 20.05304436 0.02428622 23.72201538 -0.00565529 C26.55149002 -0.02375983 29.38053406 -0.01795631 32.21002197 -0.00501633 C34.21798903 -0.00007872 36.2259731 -0.01521214 38.23388672 -0.03067017 C48.35589259 0.09958358 48.35589259 0.09958358 51.47265625 2.96728516 C53.5701292 6.39055439 53.51163723 8.72036277 53.125 12.6640625 C54.445 13.3240625 55.765 13.9840625 57.125 14.6640625 C57.17129055 22.452526 57.20685242 30.24095742 57.22862434 38.02952385 C57.23907249 41.64587123 57.25325032 45.26212466 57.27587891 48.87841797 C57.2975708 52.36675061 57.30956085 55.85499274 57.31475449 59.3433876 C57.32026169 61.32546221 57.33588034 63.30750029 57.35159302 65.28952026 C57.35174408 66.49061432 57.35189514 67.69170837 57.35205078 68.92919922 C57.356492 69.99065155 57.36093323 71.05210388 57.36550903 72.14572144 C57.125 74.6640625 57.125 74.6640625 55.125 76.6640625 C52.60665894 76.90457153 52.60665894 76.90457153 49.39013672 76.89111328 C48.18904266 76.89096222 46.98794861 76.89081116 45.75045776 76.89065552 C44.44835358 76.88033295 43.14624939 76.87001038 41.8046875 76.859375 C40.46233327 76.85564526 39.11997633 76.85279811 37.77761841 76.85079956 C34.242986 76.84315994 30.70851772 76.8235088 27.1739502 76.8013916 C23.5678123 76.78094015 19.96164791 76.77179935 16.35546875 76.76171875 C9.27857865 76.7402631 2.20180003 76.70612329 -4.875 76.6640625 C-5.535 75.3440625 -6.195 74.0240625 -6.875 72.6640625 C-7.926875 72.7671875 -8.97875 72.8703125 -10.0625 72.9765625 C-13.875 72.6640625 -13.875 72.6640625 -16.58276367 70.6262207 C-19.39416672 66.99316573 -19.52654534 64.360447 -19.36328125 59.95703125 C-19.35620651 59.23163651 -19.34913177 58.50624176 -19.34184265 57.75886536 C-19.31398406 55.45535547 -19.25127191 53.15432999 -19.1875 50.8515625 C-19.16240563 49.28454047 -19.13959444 47.7174801 -19.11914062 46.15039062 C-19.06418681 42.32066594 -18.97798226 38.49278453 -18.875 34.6640625 C-17.21885343 34.28187483 -15.55042976 33.95011148 -13.875 33.6640625 C-11.96280415 35.57625835 -12.63064702 39.00051754 -12.55859375 41.54296875 C-12.53781265 42.2296312 -12.51703156 42.91629364 -12.49562073 43.62376404 C-12.43005857 45.82459185 -12.37120985 48.02554225 -12.3125 50.2265625 C-12.26932108 51.71550764 -12.225707 53.20444023 -12.18164062 54.69335938 C-12.0743707 58.35012803 -11.97312228 62.00703568 -11.875 65.6640625 C-10.225 65.9940625 -8.575 66.3240625 -6.875 66.6640625 C-6.87944122 66.01704376 -6.88388245 65.37002502 -6.88845825 64.70339966 C-6.93259925 57.98799847 -6.96282788 51.27263828 -6.98486328 44.55712891 C-6.99494011 42.04864835 -7.00860179 39.54017958 -7.02587891 37.03173828 C-7.05005337 33.43258762 -7.06146612 29.83359183 -7.0703125 26.234375 C-7.08063507 25.10726105 -7.09095764 23.98014709 -7.10159302 22.81887817 C-7.10174408 21.77795013 -7.10189514 20.73702209 -7.10205078 19.66455078 C-7.106492 18.74521759 -7.11093323 17.8258844 -7.11550903 16.87869263 C-6.875 14.6640625 -6.875 14.6640625 -4.875 12.6640625 C-2.66036987 12.42355347 -2.66036987 12.42355347 0.12548828 12.43701172 C1.16641632 12.43716278 2.20734436 12.43731384 3.27981567 12.43746948 C4.9704866 12.45295334 4.9704866 12.45295334 6.6953125 12.46875 C7.84667694 12.4715799 8.99804138 12.47440979 10.18429565 12.47732544 C13.87296812 12.48854842 17.56140053 12.51365694 21.25 12.5390625 C23.74609025 12.54908956 26.2421843 12.55821588 28.73828125 12.56640625 C34.86726984 12.58849466 40.99611777 12.62199303 47.125 12.6640625 C46.63 10.1890625 46.63 10.1890625 46.125 7.6640625 C26.985 7.6640625 7.845 7.6640625 -11.875 7.6640625 C-12.205 13.2740625 -12.535 18.8840625 -12.875 24.6640625 C-14.525 24.9940625 -16.175 25.3240625 -17.875 25.6640625 C-20.11900129 23.42006121 -19.20123408 18.42425003 -19.25 15.4140625 C-19.28738281 14.55425781 -19.32476562 13.69445312 -19.36328125 12.80859375 C-19.37488281 11.97199219 -19.38648438 11.13539062 -19.3984375 10.2734375 C-19.41825684 9.50999023 -19.43807617 8.74654297 -19.45849609 7.95996094 C-18.78690865 5.31744699 -17.85888282 3.50726801 -15.82437134 1.6595459 C-11.07754224 -0.76451229 -5.19366571 -0.03998371 0 0 Z " fill="#A4D5A6" transform="translate(30.875,11.3359375)"/>
<path d="M0 0 C1.37093536 -0.00337114 2.7418678 -0.00822625 4.11279297 -0.01449585 C6.98108474 -0.02185344 9.84859609 -0.0111996 12.71679688 0.01220703 C16.38583493 0.04069651 20.05304436 0.02428622 23.72201538 -0.00565529 C26.55149002 -0.02375983 29.38053406 -0.01795631 32.21002197 -0.00501633 C34.21798903 -0.00007872 36.2259731 -0.01521214 38.23388672 -0.03067017 C47.16006065 0.08419517 47.16006065 0.08419517 51.46166992 2.66918945 C53.69314066 6.6870159 53.76224637 9.72328017 53.61328125 14.24609375 C53.60620651 15.06027267 53.59913177 15.8744516 53.59184265 16.71330261 C53.56395598 19.30200893 53.50123316 21.88851523 53.4375 24.4765625 C53.4124095 26.23629678 53.38959764 27.99606513 53.36914062 29.75585938 C53.31414872 34.05943546 53.22791992 38.3613766 53.125 42.6640625 C51.46885343 43.04625017 49.80042976 43.37801352 48.125 43.6640625 C46.11783657 41.65689907 46.86909269 37.66633397 46.80859375 34.91015625 C46.78994263 34.22312622 46.7712915 33.53609619 46.7520752 32.82824707 C46.68358812 30.25282092 46.62356053 27.67717543 46.5625 25.1015625 C46.418125 19.3471875 46.27375 13.5928125 46.125 7.6640625 C26.985 7.6640625 7.845 7.6640625 -11.875 7.6640625 C-12.205 13.2740625 -12.535 18.8840625 -12.875 24.6640625 C-14.525 24.9940625 -16.175 25.3240625 -17.875 25.6640625 C-20.11900129 23.42006121 -19.20123408 18.42425003 -19.25 15.4140625 C-19.28738281 14.55425781 -19.32476562 13.69445312 -19.36328125 12.80859375 C-19.37488281 11.97199219 -19.38648438 11.13539062 -19.3984375 10.2734375 C-19.41825684 9.50999023 -19.43807617 8.74654297 -19.45849609 7.95996094 C-18.78690865 5.31744699 -17.85888282 3.50726801 -15.82437134 1.6595459 C-11.07754224 -0.76451229 -5.19366571 -0.03998371 0 0 Z " fill="#18193F" transform="translate(30.875,11.3359375)"/>
<path d="M0 0 C1.65 0.33 3.3 0.66 5 1 C5.33 11.23 5.66 21.46 6 32 C25.14 32 44.28 32 64 32 C64.33 28.04 64.66 24.08 65 20 C66.65 19.67 68.3 19.34 70 19 C71.78569161 20.78569161 71.21468103 23.33653738 71.25 25.75 C71.27578125 26.79671875 71.3015625 27.8434375 71.328125 28.921875 C70.95355327 32.43571456 70.15786565 34.22004695 68 37 C64.70928694 39.11820489 61.98540865 39.26689815 58.11743164 39.30639648 C56.93262711 39.32238388 55.74782257 39.33837128 54.52711487 39.35484314 C53.25101852 39.36020584 51.97492218 39.36556854 50.66015625 39.37109375 C48.68878944 39.38463646 48.68878944 39.38463646 46.67759705 39.39845276 C43.89775133 39.41492147 41.11802576 39.42263917 38.33813477 39.42553711 C34.78243626 39.43092438 31.227872 39.46862479 27.67249393 39.51428127 C24.27255304 39.5512364 20.87279118 39.5525665 17.47265625 39.55859375 C16.19858414 39.57812607 14.92451202 39.59765839 13.61183167 39.61778259 C4.92308914 39.57332995 4.92308914 39.57332995 0.69067383 36.94458008 C-1.39242727 33.31652486 -1.65668304 30.4007858 -1.5234375 26.328125 C-1.51873444 25.60510193 -1.51403137 24.88207886 -1.50918579 24.137146 C-1.48792517 21.8404406 -1.43133085 19.54608384 -1.375 17.25 C-1.3584849 15.69142794 -1.34413888 14.13283128 -1.33203125 12.57421875 C-1.19601531 1.19601531 -1.19601531 1.19601531 0 0 Z " fill="#18193F" transform="translate(13,45)"/>
<path d="M0 0 C5.28 0 10.56 0 16 0 C16 2.64 16 5.28 16 8 C17.134375 7.979375 18.26875 7.95875 19.4375 7.9375 C23 8 23 8 24 9 C24.08631874 10.34267413 24.10706473 11.68974322 24.09765625 13.03515625 C24.09443359 13.84404297 24.09121094 14.65292969 24.08789062 15.48632812 C24.07532227 16.7615332 24.07532227 16.7615332 24.0625 18.0625 C24.05798828 18.91650391 24.05347656 19.77050781 24.04882812 20.65039062 C24.03700373 22.76695663 24.01906769 24.88348685 24 27 C22.34385343 27.38218767 20.67542976 27.71395102 19 28 C18.67 27.67 18.34 27.34 18 27 C18 25.35 18 23.7 18 22 C11.4 22 4.8 22 -2 22 C-2 23.65 -2 25.3 -2 27 C-3.65614657 27.38218767 -5.32457024 27.71395102 -7 28 C-8.5220959 26.4779041 -8.12959521 25.11789918 -8.1328125 23 C-8.13410156 22.195625 -8.13539062 21.39125 -8.13671875 20.5625 C-8.13285156 19.716875 -8.12898438 18.87125 -8.125 18 C-8.12886719 17.154375 -8.13273437 16.30875 -8.13671875 15.4375 C-8.13542969 14.633125 -8.13414063 13.82875 -8.1328125 13 C-8.13168457 12.2575 -8.13055664 11.515 -8.12939453 10.75 C-8 9 -8 9 -7 8 C-4.66702567 7.95907063 -2.33294775 7.95758277 0 8 C0 5.36 0 2.72 0 0 Z " fill="#191A3F" transform="translate(40,44)"/>
<path d="M0 0 C1.27875 0.00257812 2.5575 0.00515625 3.875 0.0078125 C5.15375 0.00523438 6.4325 0.00265625 7.75 0 C10.875 0.1328125 10.875 0.1328125 11.875 1.1328125 C11.97409302 3.46441305 12.00470504 5.79911192 12 8.1328125 C12.00386719 10.0509375 12.00386719 10.0509375 12.0078125 12.0078125 C11.875 15.1328125 11.875 15.1328125 10.875 16.1328125 C8.34450598 16.20594817 5.84195163 16.22528777 3.3125 16.1953125 C2.60158203 16.19080078 1.89066406 16.18628906 1.15820312 16.18164062 C-0.60290013 16.16982114 -2.36396036 16.15188513 -4.125 16.1328125 C-4.15185095 13.65357449 -4.17176547 11.1746241 -4.1875 8.6953125 C-4.20006836 7.63473633 -4.20006836 7.63473633 -4.21289062 6.55273438 C-4.22153588 4.74587691 -4.17720011 2.93893647 -4.125 1.1328125 C-3.125 0.1328125 -3.125 0.1328125 0 0 Z " fill="#18193F" transform="translate(60.125,27.8671875)"/>
<path d="M0 0 C1.27875 0.00257812 2.5575 0.00515625 3.875 0.0078125 C5.15375 0.00523438 6.4325 0.00265625 7.75 0 C10.875 0.1328125 10.875 0.1328125 11.875 1.1328125 C11.94813567 3.66330652 11.96747527 6.16586087 11.9375 8.6953125 C11.93298828 9.40623047 11.92847656 10.11714844 11.92382812 10.84960938 C11.91200864 12.61071263 11.89407263 14.37177286 11.875 16.1328125 C9.39576199 16.15966345 6.9168116 16.17957797 4.4375 16.1953125 C3.73044922 16.20369141 3.02339844 16.21207031 2.29492188 16.22070312 C0.48806441 16.22934838 -1.31887603 16.18501261 -3.125 16.1328125 C-4.125 15.1328125 -4.125 15.1328125 -4.2578125 12.0078125 C-4.25523438 10.7290625 -4.25265625 9.4503125 -4.25 8.1328125 C-4.25257812 6.8540625 -4.25515625 5.5753125 -4.2578125 4.2578125 C-4.08423261 0.17357989 -4.08423261 0.17357989 0 0 Z " fill="#18193F" transform="translate(28.125,27.8671875)"/>
</svg>
